<?xml version="1.0" encoding="utf-8"?>
<!-- Generator: Adobe Illustrator 19.2.0, SVG Export Plug-In . SVG Version: 6.00 Build 0)  -->
<svg version="1.1" id="Layer_1" xmlns="http://www.w3.org/2000/svg" xmlns:xlink="http://www.w3.org/1999/xlink" x="0px" y="0px"
	 viewBox="0 0 3.9 10.2" style="enable-background:new 0 0 3.9 10.2;" xml:space="preserve">
<style type="text/css">
	.st0{fill:#FFF3C2;}
</style>
<path class="st0" d="M3.9,9.1c0-0.1-0.2-0.2-0.5-0.3c0-0.1,0.1-0.1,0.1-0.2c0-0.2-0.1-0.3-0.1-0.4c0,0,0,0,0,0C3.3,8,3,7.9,2.4,7.8
	c0-0.1,0-0.1,0-0.1s-0.1-0.6,0-0.9C2.6,6.5,2.6,6.1,2.5,6c0-0.1-0.1-0.4,0-0.6c0.1-0.1,0.1-0.5,0.2-1c0-0.5-0.1-0.6-0.1-0.6V3.4h0.1
	C3,3.4,3,2.8,3.1,2.5c0-0.3,0.2-0.5,0-0.8C2.8,1.4,2.3,1.3,2.3,1.3l0-0.3c0,0,0.2-0.1,0.1-0.6C2.4,0,2,0,2,0H1.9c0,0-0.4,0-0.4,0.4
	C1.5,0.9,1.7,1,1.7,1l0,0.3c0,0-0.6,0.1-0.8,0.4c-0.2,0.3,0,0.6,0,0.8c0,0.3,0.1,0.9,0.4,0.9h0.1v0.4c0,0-0.1,0.1-0.1,0.6
	c0,0.5,0.1,0.8,0.2,1c0.1,0.1,0,0.5,0,0.6c0,0.1-0.1,0.5,0.1,0.9c0.2,0.3,0,0.9,0,0.9s0,0,0,0.1C1,7.9,0.6,8,0.6,8.2c0,0,0,0,0,0
	c-0.1,0-0.1,0.1-0.1,0.4c0,0.1,0,0.1,0.1,0.2C0.2,8.9,0,9,0,9.1v0.7c0,0,0.4,0.5,2.1,0.4c1.7,0,1.8-0.5,1.8-0.5L3.9,9.1L3.9,9.1z"/>
</svg>
